<?xml version="1.0" encoding="iso-8859-1"?>
<!-- Generator: Adobe Illustrator 18.0.0, SVG Export Plug-In . SVG Version: 6.00 Build 0)  -->
<!DOCTYPE svg PUBLIC "-//W3C//DTD SVG 1.1//EN" "http://www.w3.org/Graphics/SVG/1.1/DTD/svg11.dtd">
<svg version="1.1" id="Capa_1" xmlns="http://www.w3.org/2000/svg" xmlns:xlink="http://www.w3.org/1999/xlink" x="0px" y="0px"
	 viewBox="0 0 361.5 361.5" style="enable-background:new 0 0 361.5 361.5;" xml:space="preserve">
<g>
	<path d="M361.5,31.068c0-7.063-2.75-13.702-7.742-18.694l-4.637-4.639C338.814-2.569,322.048-2.569,311.74,7.727
		c-0.004,0.003-0.008,0.007-0.011,0.01l-22.358,22.356l-3.71-3.71c-1.407-1.406-3.314-2.196-5.304-2.196
		c-1.988,0-3.896,0.79-5.303,2.197L21.761,279.681c-0.01,0.009-0.016,0.018-0.023,0.026c-0.867,0.871-1.531,1.966-1.891,3.232
		l-19.563,69.01c-0.742,2.615-0.01,5.427,1.912,7.35c1.426,1.426,3.342,2.196,5.305,2.196c0.682,0,1.369-0.093,2.045-0.284
		l69.01-19.563c0.022-0.007,1.84-0.458,3.258-1.912L314.67,106.879l0.647,0.647c7.166,7.165,7.166,18.824,0,25.99L222.97,225.86
		c-2.929,2.93-2.929,7.678,0,10.607c1.465,1.464,3.385,2.196,5.304,2.196c1.919,0,3.839-0.732,5.304-2.196l92.346-92.345
		c13.014-13.015,13.014-34.19,0-47.204l-0.646-0.646l9.833-9.834c1.407-1.407,2.196-3.314,2.196-5.304
		c0-1.989-0.789-3.896-2.196-5.304l-3.71-3.71l22.355-22.357C358.75,44.77,361.5,38.131,361.5,31.068z M280.358,42.294L319.2,81.135
		l-4.53,4.53l-38.842-38.841L280.358,42.294z M18.381,343.114l12.414-43.792L62.173,330.7L18.381,343.114z M76.511,323.825
		L37.67,284.984l9.83-9.829l38.842,38.84L76.511,323.825z M96.949,303.389l-38.844-38.84L265.222,57.431l38.841,38.841
		L96.949,303.389z M343.149,39.157l-22.356,22.357l-20.815-20.813l22.357-22.357c0.001-0.001,0.002-0.002,0.002-0.003
		c4.461-4.458,11.717-4.458,16.176-0.001l4.636,4.639c2.161,2.16,3.351,5.033,3.351,8.089
		C346.5,34.124,345.31,36.997,343.149,39.157z"/>
</g>
<g>
</g>
<g>
</g>
<g>
</g>
<g>
</g>
<g>
</g>
<g>
</g>
<g>
</g>
<g>
</g>
<g>
</g>
<g>
</g>
<g>
</g>
<g>
</g>
<g>
</g>
<g>
</g>
<g>
</g>
</svg>
